<?xml version="1.0" standalone="no"?>
<!DOCTYPE svg PUBLIC "-//W3C//DTD SVG 20010904//EN"
 "http://www.w3.org/TR/2001/REC-SVG-20010904/DTD/svg10.dtd">
<svg version="1.0" xmlns="http://www.w3.org/2000/svg"
 width="128.000000pt" height="128.000000pt" viewBox="0 0 128.000000 128.000000"
 preserveAspectRatio="xMidYMid meet">

<g transform="translate(0.000000,128.000000) scale(0.100000,-0.100000)"
fill="currentColor" stroke="none">
<path d="M145 1231 c-48 -22 -79 -54 -100 -103 -13 -32 -15 -104 -15 -490 0
-419 2 -456 19 -493 22 -48 54 -79 103 -100 32 -13 104 -15 490 -15 419 0 456
2 493 19 48 22 79 54 100 103 23 56 23 920 0 976 -21 49 -52 81 -100 103 -37
17 -74 19 -495 19 -421 0 -458 -2 -495 -19z m606 -137 c243 -72 387 -298 350
-546 -23 -146 -120 -281 -251 -346 -74 -38 -84 -38 -110 -12 -17 17 -20 33
-20 102 0 45 -5 96 -12 115 -6 18 -9 35 -5 39 3 4 28 10 54 15 62 12 92 34
121 90 29 56 27 144 -5 187 -17 22 -20 38 -16 74 3 25 1 48 -5 52 -5 3 -31 -6
-57 -19 -43 -24 -52 -25 -103 -15 -39 7 -74 7 -114 0 -51 -10 -62 -8 -97 10
-58 29 -63 27 -60 -27 2 -31 -3 -59 -14 -80 -23 -43 -22 -137 1 -182 22 -45
55 -67 122 -84 35 -9 56 -20 58 -31 5 -24 -24 -30 -82 -17 -107 25 -165 95
-174 210 -3 49 0 76 13 106 10 22 18 65 19 96 3 88 34 108 114 73 57 -26 262
-27 311 -2 19 10 48 18 64 18 23 0 31 -7 43 -36 8 -19 14 -52 13 -72 -1 -20 6
-53 16 -72 13 -25 18 -55 18 -102 -2 -113 -51 -187 -146 -218 -27 -8 -37 -16
-33 -27 3 -8 6 -48 6 -89 l0 -75 60 32 c195 104 274 353 176 554 -139 283
-538 314 -719 55 -145 -208 -73 -500 152 -615 l51 -25 0 44 c0 43 -1 44 -37
51 -51 9 -87 32 -108 67 -16 28 -16 31 -1 46 16 16 19 15 46 -18 25 -31 34
-35 77 -36 27 0 54 -4 61 -8 8 -5 12 -35 12 -86 0 -119 -24 -133 -133 -79
-172 87 -278 296 -248 489 6 41 24 102 40 135 55 118 183 225 310 261 65 18
178 17 242 -2z"/>
</g>
</svg>
