<?xml version="1.0" standalone="no"?>
<!DOCTYPE svg PUBLIC "-//W3C//DTD SVG 20010904//EN"
 "http://www.w3.org/TR/2001/REC-SVG-20010904/DTD/svg10.dtd">
<svg version="1.0" xmlns="http://www.w3.org/2000/svg"
 width="128.000000pt" height="128.000000pt" viewBox="0 0 128.000000 128.000000"
 preserveAspectRatio="xMidYMid meet">

<g transform="translate(0.000000,128.000000) scale(0.100000,-0.100000)"
fill="currentColor" stroke="none">
<path d="M291 1155 c-96 -27 -141 -73 -167 -174 -21 -83 -16 -653 7 -716 20
-58 84 -118 144 -136 72 -20 658 -20 730 0 66 20 126 80 146 146 20 72 20 658
0 730 -18 60 -78 124 -136 144 -61 22 -649 26 -724 6z m614 -144 c22 -10 52
-31 67 -47 51 -55 56 -82 59 -319 3 -241 -1 -267 -59 -329 -57 -60 -84 -66
-332 -66 -248 0 -275 6 -332 66 -53 57 -58 84 -58 324 0 240 5 267 58 324 57
60 84 66 332 66 198 0 230 -3 265 -19z"/>
<path d="M415 945 c-52 -19 -82 -54 -90 -108 -4 -23 -5 -126 -3 -227 3 -202
10 -229 65 -266 25 -17 49 -19 255 -19 213 0 228 1 255 21 57 42 63 68 63 294
0 226 -6 252 -63 294 -26 19 -44 21 -235 23 -161 2 -216 0 -247 -12z m467 -62
c10 -9 18 -23 18 -31 0 -18 -28 -52 -43 -52 -19 0 -47 33 -47 55 0 43 39 58
72 28z m-152 -58 c141 -72 154 -265 24 -354 -114 -79 -275 -17 -310 118 -43
166 136 313 286 236z"/>
<path d="M573 750 c-85 -51 -81 -179 6 -225 61 -31 136 -11 171 48 70 114 -63
247 -177 177z"/>
</g>
</svg>
