<?xml version="1.0" standalone="no"?>
<!DOCTYPE svg PUBLIC "-//W3C//DTD SVG 20010904//EN"
 "http://www.w3.org/TR/2001/REC-SVG-20010904/DTD/svg10.dtd">
<svg version="1.0" xmlns="http://www.w3.org/2000/svg"
 width="128.000000pt" height="128.000000pt" viewBox="0 0 128.000000 128.000000"
 preserveAspectRatio="xMidYMid meet">

<g transform="translate(0.000000,128.000000) scale(0.100000,-0.100000)"
fill="currentColor" stroke="none">
<path d="M135 1145 l-25 -24 0 -481 0 -481 25 -24 24 -25 481 0 481 0 24 25
25 24 0 481 0 481 -25 24 -24 25 -481 0 -481 0 -24 -25z m260 -157 c84 -38 54
-158 -39 -158 -100 0 -121 128 -26 163 24 9 37 8 65 -5z m516 -234 c37 -19 76
-68 89 -112 5 -20 10 -110 10 -199 l0 -163 -79 0 -79 0 -4 153 c-4 181 -13
207 -76 207 -79 -1 -92 -32 -92 -214 l0 -146 -80 0 -80 0 0 240 0 240 80 0
c79 0 80 0 80 -26 l0 -25 35 27 c58 44 132 51 196 18z m-481 -234 l0 -240 -80
0 -80 0 0 240 0 240 80 0 80 0 0 -240z"/>
</g>
</svg>
